<svg id="Layer_2" data-name="Layer 2" xmlns="http://www.w3.org/2000/svg" viewBox="0 0 862.34 1463.55"><defs><style>.cls-1,.cls-2,.cls-3,.cls-4{stroke:#000;stroke-miterlimit:10;}.cls-2{fill:#fff;}.cls-3,.cls-4{fill:none;}.cls-3{stroke-width:2px;}</style></defs><polygon class="cls-1" points="809.77 41.24 633.78 40.93 614.45 0.9 390.25 0.5 370.78 40.47 208.78 40.18 156.57 157.09 861.57 158.33 809.77 41.24"/><polygon class="cls-1" points="146.65 284.93 67.58 284.97 0.88 170.87 146.83 172.97 146.65 284.93"/><path class="cls-2" d="M2012.05,1145.85" transform="translate(-1356.3 -1018.23)"/><path class="cls-2" d="M2012.05,1145.85" transform="translate(-1356.3 -1018.23)"/><path class="cls-3" d="M2210.05,1146.54" transform="translate(-1356.3 -1018.23)"/><path class="cls-4" d="M1857,2414.25h0" transform="translate(-1356.3 -1018.23)"/><path class="cls-4" d="M1367.86,1538.22" transform="translate(-1356.3 -1018.23)"/><path class="cls-4" d="M1282.14,1046.91" transform="translate(-1356.3 -1018.23)"/><path class="cls-1" d="M2209.68,1193.09l-110-.19-582-1-.19,111,285,.5c164,.29,296.76,133.5,296.47,297.53l-.56,314c-.29,164-133.49,296.76-297.52,296.47h0l-.2,111,297,.53,111,.19.2-111,1.8-1019Z" transform="translate(-1356.3 -1018.23)"/><path class="cls-1" d="M1682.7,1909.27c-5.37,0-10.7.2-16,.57l1-587.59-152-.27-1.17,661.2c-50.46,52.23-82.22,127.69-82.37,211.65-.28,158,111.42,286.2,249.49,286.44s250.23-127.6,250.51-285.56S1820.78,1909.52,1682.7,1909.27Zm-.73,413c-55.22-.09-99.9-55-99.78-122.67s45-122.42,100.22-122.33,99.9,55,99.78,122.68S1737.2,2322.37,1682,2322.27Z" transform="translate(-1356.3 -1018.23)"/></svg>